<?xml version="1.0" standalone="no"?>
<!DOCTYPE svg PUBLIC "-//W3C//DTD SVG 20010904//EN"
 "http://www.w3.org/TR/2001/REC-SVG-20010904/DTD/svg10.dtd">
<svg version="1.0" xmlns="http://www.w3.org/2000/svg"
 width="474.000000pt" height="474.000000pt" viewBox="0 0 474.000000 474.000000"
 preserveAspectRatio="xMidYMid meet">
<metadata>
Created by potrace 1.14, written by Peter Selinger 2001-2017
</metadata>
<g transform="translate(0.000000,474.000000) scale(0.100000,-0.100000)"
fill="#000000" stroke="none">
<path d="M655 3920 c-89 -8 -154 -25 -202 -53 -40 -23 -41 -34 -5 -48 l27 -11
-38 -15 c-34 -14 -38 -19 -32 -42 9 -37 40 -66 91 -86 36 -13 47 -25 63 -60
19 -43 90 -130 99 -121 10 10 42 -15 42 -33 0 -10 7 -24 15 -31 8 -7 15 -17
15 -23 0 -25 71 -94 121 -117 51 -23 109 -73 109 -93 0 -5 -8 -6 -17 -2 -10 4
-52 9 -93 12 -41 2 -97 8 -125 13 -45 7 -275 -1 -412 -15 -66 -6 -123 -33
-123 -56 0 -24 32 -45 105 -69 51 -17 64 -26 77 -54 15 -31 42 -49 111 -75 15
-6 27 -18 27 -28 0 -10 10 -31 23 -47 23 -28 59 -45 149 -70 25 -7 61 -25 78
-40 18 -15 48 -33 67 -41 19 -8 44 -27 56 -41 11 -15 49 -40 84 -56 44 -20 63
-34 63 -47 0 -31 47 -68 103 -81 31 -7 64 -24 82 -40 17 -16 50 -33 75 -40 61
-15 89 -30 95 -51 10 -29 52 -49 117 -55 36 -3 85 -15 115 -29 28 -14 65 -25
81 -25 18 0 37 -10 52 -25 16 -17 34 -25 56 -25 44 0 74 -38 73 -94 0 -38 -8
-55 -51 -117 -9 -13 -30 -95 -47 -183 -18 -87 -39 -172 -48 -190 -16 -30 -32
-97 -54 -216 -6 -30 -15 -78 -20 -106 -6 -31 -27 -77 -54 -119 -25 -37 -45
-77 -45 -87 0 -11 -11 -38 -24 -61 -33 -56 -44 -117 -22 -117 20 0 20 -4 1
-40 -10 -19 -11 -31 -5 -35 12 -8 60 21 60 35 0 6 7 10 16 10 13 0 12 -6 -7
-37 -14 -25 25 9 113 97 74 74 194 193 267 264 72 71 135 134 139 141 4 7 25
24 47 38 22 14 60 44 84 66 47 44 90 54 120 27 22 -19 81 -31 81 -16 0 11 9
24 43 61 17 19 76 27 91 12 4 -5 29 -9 54 -9 26 -1 56 -4 66 -5 17 -3 21 5 31
58 6 34 18 70 26 79 8 10 21 27 29 37 8 10 46 39 83 64 58 40 127 116 127 141
0 4 13 23 30 42 16 19 29 39 30 44 0 5 16 30 35 57 21 29 42 78 54 121 11 40
24 87 29 103 6 17 13 64 16 105 4 41 13 93 20 115 8 22 24 76 37 120 12 44 25
87 29 95 4 8 20 42 36 75 15 33 35 69 45 80 28 33 97 173 135 275 32 89 78
168 114 198 8 7 34 22 57 32 24 11 55 28 70 39 45 32 158 43 493 50 173 3 321
10 328 14 6 5 12 15 12 23 0 8 -6 14 -12 15 -7 0 -87 5 -178 10 -91 6 -312 13
-491 15 l-327 4 -68 40 c-150 86 -385 118 -523 71 -192 -66 -251 -129 -284
-306 -14 -75 -52 -170 -96 -240 -20 -34 -58 -38 -103 -14 -14 8 -54 29 -89 48
-58 31 -195 130 -259 187 -14 12 -92 57 -175 99 -82 43 -176 93 -208 111 -32
19 -59 34 -61 34 -2 0 -41 22 -88 49 -74 43 -312 161 -408 204 -61 27 -267 86
-337 97 -38 6 -77 12 -88 13 -11 2 -56 0 -100 -3z"/>
</g>
</svg>
