<?xml version="1.0" standalone="no"?>
<!DOCTYPE svg PUBLIC "-//W3C//DTD SVG 20010904//EN"
 "http://www.w3.org/TR/2001/REC-SVG-20010904/DTD/svg10.dtd">
<svg version="1.0" xmlns="http://www.w3.org/2000/svg"
 width="474.000000pt" height="474.000000pt" viewBox="0 0 474.000000 474.000000"
 preserveAspectRatio="xMidYMid meet">
<metadata>
Created by potrace 1.14, written by Peter Selinger 2001-2017
</metadata>
<g transform="translate(0.000000,474.000000) scale(0.100000,-0.100000)"
fill="#000000" stroke="none">
<path d="M560 3903 c-30 -8 -60 -16 -66 -17 -27 -5 -63 -37 -58 -51 4 -8 10
-13 14 -10 4 3 10 -2 14 -10 3 -10 -3 -17 -19 -21 -39 -10 -46 -25 -27 -63 9
-19 24 -36 34 -39 10 -2 18 -8 18 -13 0 -5 7 -9 15 -9 31 0 62 -23 74 -55 13
-36 77 -126 89 -123 13 2 62 -21 60 -29 -5 -14 24 -73 35 -73 6 0 8 -3 4 -6
-10 -10 65 -72 120 -100 80 -39 129 -113 66 -100 -58 13 -143 18 -303 21 -335
5 -487 -31 -410 -98 11 -9 27 -17 35 -17 8 0 15 -5 15 -11 0 -5 4 -8 9 -4 13
7 91 -27 91 -40 0 -22 47 -67 85 -79 31 -11 45 -24 63 -57 28 -54 62 -74 166
-100 22 -5 55 -23 75 -38 20 -16 51 -36 70 -46 18 -9 45 -29 60 -44 15 -15 52
-38 84 -51 41 -17 57 -29 57 -43 0 -38 89 -97 146 -97 6 0 21 -11 33 -24 24
-26 49 -37 121 -56 33 -8 50 -19 62 -41 20 -34 54 -49 123 -54 28 -1 72 -13
100 -25 27 -13 65 -25 85 -27 19 -3 42 -13 50 -24 9 -11 32 -21 55 -24 42 -5
80 -38 71 -61 -3 -7 -1 -16 4 -19 15 -9 -1 -68 -29 -111 -28 -41 -43 -90 -81
-264 -12 -52 -28 -117 -37 -145 -10 -27 -18 -55 -19 -61 -1 -6 -9 -36 -18 -67
-9 -30 -21 -90 -27 -133 -12 -84 -18 -101 -73 -183 -20 -29 -36 -60 -36 -70 0
-9 -9 -32 -19 -52 -11 -19 -25 -55 -32 -78 -11 -35 -10 -44 1 -51 11 -7 12
-14 2 -35 -7 -14 -12 -30 -12 -35 0 -19 34 -10 62 17 31 29 37 21 12 -15 -22
-32 -14 -35 19 -6 15 13 25 24 22 24 -7 0 173 180 291 290 38 36 68 68 66 73
-1 4 2 6 6 5 4 -2 47 35 94 82 98 96 136 130 146 130 4 0 18 14 31 31 20 25
30 29 57 26 18 -3 40 -12 49 -21 9 -9 21 -17 26 -17 5 -1 15 -2 22 -3 15 -3
43 25 51 51 10 32 78 51 111 31 9 -5 104 -12 133 -9 7 1 12 16 12 40 0 22 4
50 9 63 11 30 97 119 105 110 4 -3 10 -2 14 3 4 6 27 23 51 40 24 16 46 36 49
45 3 8 8 17 12 20 10 8 127 195 149 237 33 66 66 207 74 324 2 25 6 50 9 55 3
5 11 33 18 62 7 30 24 84 37 120 14 37 25 73 26 80 0 6 4 12 9 12 4 0 8 7 8
15 0 14 56 125 69 135 6 5 31 49 70 125 11 22 35 78 51 125 43 117 108 205
168 224 11 4 26 13 32 21 7 8 21 15 31 15 11 0 19 4 19 9 0 10 24 16 100 27
89 12 158 15 390 19 129 2 237 4 240 5 3 1 9 2 15 0 18 -3 75 11 75 19 0 15
-29 21 -128 26 -53 3 -126 8 -162 11 -36 3 -213 7 -394 9 -181 1 -331 7 -335
11 -21 30 -134 80 -221 99 -41 9 -82 19 -90 22 -8 3 -46 6 -84 7 -99 2 -252
-40 -294 -81 -7 -7 -16 -13 -20 -13 -12 -1 -77 -64 -94 -90 -8 -14 -25 -66
-37 -115 -26 -106 -33 -127 -78 -223 -20 -40 -42 -76 -52 -80 -14 -7 -36 -8
-43 -3 -2 2 -14 5 -28 7 -14 2 -44 18 -67 34 -23 17 -44 30 -48 30 -9 0 -96
60 -125 87 -14 13 -30 23 -37 23 -7 0 -13 3 -13 8 0 15 -130 102 -245 161 -66
35 -125 67 -131 72 -6 5 -14 6 -17 2 -4 -3 -7 -1 -7 5 0 7 -9 12 -20 12 -11 0
-23 7 -26 15 -4 8 -12 15 -19 15 -12 0 -224 117 -235 129 -3 3 -70 38 -150 77
-180 89 -353 149 -494 174 -85 14 -222 11 -286 -7z"/>
</g>
</svg>
